Coordinates
version=1
nRows=24
nColumns=38
inDegrees=no

Units are S.I. units (second, meters, Newtons, ...)
If the header above contains a line with 'inDegrees', this indicates whether rotational values are in degrees (yes) or radians (no).

endheader
time	pelvis_tilt	pelvis_list	pelvis_rotation	pelvis_tx	pelvis_ty	pelvis_tz	hip_flexion_r	hip_adduction_r	hip_rotation_r	knee_angle_r	ankle_angle_r	subtalar_angle_r	mtp_angle_r	hip_flexion_l	hip_adduction_l	hip_rotation_l	knee_angle_l	ankle_angle_l	subtalar_angle_l	mtp_angle_l	lumbar_extension	lumbar_bending	lumbar_rotation	arm_flex_r	arm_add_r	arm_rot_r	elbow_flex_r	pro_sup_r	wrist_flex_r	wrist_dev_r	arm_flex_l	arm_add_l	arm_rot_l	elbow_flex_l	pro_sup_l	wrist_flex_l	wrist_dev_l
0.6	3.05268	1.28523	-1.43698	0.771468	0.721095	0.948189	-0.152073	-0.0115726	-0.359816	0.775828	-0.0442593	0	0	0.218132	-0.141049	-0.173716	1.30392	0.00535323	0	0	-0.454473	0.142769	0.394473	-0.698563	-0.349838	-0.121222	1.06846	1.05174	0	0	0.250314	-0.0284928	0.287895	0	1.5708	0	0
0.61	3.05761	1.28485	-1.44296	0.771587	0.728903	0.948018	-0.169166	-0.0117729	-0.364117	0.76098	-0.0406186	0	0	0.230678	-0.139059	-0.18013	1.26742	-0.00956142	0	0	-0.456808	0.139063	0.397864	-0.695529	-0.349649	-0.122819	1.06694	1.05148	0	0	0.254397	-0.0269171	0.29165	0	1.5708	0	0
0.62	3.06384	1.28575	-1.44921	0.771757	0.736879	0.947188	-0.176897	-0.0149924	-0.364224	0.766904	-0.0370548	0	0	0.243222	-0.137856	-0.1885	1.22982	-0.0277582	0	0	-0.456919	0.135675	0.401064	-0.694669	-0.349051	-0.124147	1.06709	1.05131	0	0	0.258668	-0.0254678	0.295341	0	1.5708	0	0
0.63	3.06202	1.28695	-1.44759	0.771724	0.744842	0.946523	-0.191406	-0.0133173	-0.368706	0.754485	-0.0330097	0	0	0.254285	-0.138841	-0.198361	1.19004	-0.0474545	0	0	-0.45685	0.134246	0.403679	-0.691768	-0.349388	-0.124417	1.06497	1.05104	0	0	0.261852	-0.0238126	0.29851	0	1.5708	0	0
0.64	3.0585	1.28817	-1.44367	0.771736	0.752904	0.945577	-0.202839	-0.0116789	-0.371636	0.749062	-0.0293449	0	0	0.26375	-0.141	-0.210046	1.15069	-0.0667959	0	0	-0.456615	0.133682	0.405928	-0.689626	-0.349413	-0.124794	1.06366	1.05045	0	0	0.264793	-0.0223755	0.301386	0	1.5708	0	0
0.65	3.05424	1.29113	-1.43906	0.771883	0.761075	0.944177	-0.209919	-0.010882	-0.372356	0.750607	-0.0249229	0	0	0.273677	-0.143825	-0.223625	1.11281	-0.0844674	0	0	-0.45433	0.133287	0.408387	-0.688657	-0.348686	-0.125843	1.06338	1.04943	0	0	0.267483	-0.0212613	0.303839	0	1.5708	0	0
0.66	3.04831	1.2984	-1.43376	0.770252	0.768491	0.943114	-0.273536	0.0256691	-0.347018	0.567869	-0.0260735	0	0	0.286797	-0.13978	-0.234069	1.0694	-0.117831	0	0	-0.448941	0.132474	0.407268	-0.68092	-0.354571	-0.121493	1.05509	1.04785	0	0	0.267631	-0.0179553	0.305636	0	1.5708	0	0
0.67	3.04334	1.29311	-1.42614	0.771419	0.777338	0.941683	-0.234727	-0.00512366	-0.376873	0.7346	-0.0187817	0	0	0.283576	-0.148355	-0.253562	1.0318	-0.12918	0	0	-0.453544	0.1344	0.413382	-0.687161	-0.350168	-0.125374	1.06235	1.04354	0	0	0.273317	-0.0175946	0.310143	0	1.5708	0	0
0.68	3.03788	1.30575	-1.42057	0.769533	0.785137	0.939893	-0.289361	0.0294972	-0.347518	0.563676	-0.0159187	0	0	0.299606	-0.141351	-0.261785	0.98957	-0.135805	0	0	-0.441658	0.133513	0.40887	-0.679534	-0.356304	-0.120665	1.05403	1.04245	0	0	0.270818	-0.0155508	0.309496	0	1.5708	0	0
0.69	3.03146	1.30841	-1.40988	0.768942	0.793876	0.938329	-0.302376	0.0339389	-0.350348	0.551311	-0.0200277	0	0	0.304548	-0.149177	-0.293747	0.953313	-0.144032	0	0	-0.45308	0.1356	0.415626	-0.687057	-0.356288	-0.120502	1.05189	1.04004	0	0	0.251144	-0.0237247	0.307307	0	1.57003	0	0
0.7	3.02084	1.31367	-1.39757	0.768365	0.802259	0.936328	-0.307842	0.0365696	-0.352946	0.549672	-0.0186236	0	0	0.309135	-0.143311	-0.2914	0.911829	-0.140587	0	0	-0.435011	0.138662	0.403246	-0.678981	-0.360143	-0.120375	1.05813	1.03954	0	0	0.270515	-0.0151084	0.306048	0	1.5708	0	0
0.71	3.01302	1.31938	-1.3851	0.767445	0.810852	0.934323	-0.313643	0.0388813	-0.357531	0.54739	-0.0158963	0	0	0.31399	-0.140807	-0.299947	0.873574	-0.139056	0	0	-0.427303	0.140861	0.402261	-0.680169	-0.360081	-0.120378	1.05712	1.03872	0	0	0.272569	-0.0133611	0.306183	0	1.5708	0	0
0.72	3.00595	1.32532	-1.37367	0.76643	0.819522	0.932256	-0.318792	0.0410271	-0.359534	0.545759	-0.0115087	0	0	0.317841	-0.138637	-0.31083	0.838977	-0.139318	0	0	-0.420385	0.142607	0.400372	-0.68101	-0.360443	-0.120484	1.05663	1.03785	0	0	0.273342	-0.0123042	0.307388	0	1.5708	0	0
0.73	3.00028	1.33177	-1.364	0.765337	0.828239	0.930175	-0.322662	0.0426722	-0.359464	0.545748	-0.00429436	0	0	0.32095	-0.135364	-0.322857	0.807048	-0.139105	0	0	-0.413155	0.143883	0.397646	-0.681473	-0.360766	-0.12076	1.0562	1.03594	0	0	0.273428	-0.0114239	0.30844	0	1.5708	0	0
0.74	2.99456	1.33867	-1.35454	0.764212	0.836999	0.92805	-0.324696	0.0438084	-0.35969	0.548667	0.0012769	0	0	0.324522	-0.131814	-0.335163	0.781918	-0.131567	0	0	-0.405789	0.144849	0.394419	-0.681443	-0.361947	-0.119928	1.05568	1.03434	0	0	0.273214	-0.0108285	0.308853	0	1.5708	0	0
0.75	2.98985	1.34597	-1.34601	0.76312	0.845811	0.925975	-0.325595	0.0446875	-0.360188	0.552491	0.0061812	0	0	0.328386	-0.127871	-0.347002	0.760885	-0.123964	0	0	-0.398029	0.144954	0.389933	-0.67974	-0.363564	-0.116953	1.05369	1.03139	0	0	0.272575	-0.0110436	0.308679	0	1.5708	0	0
0.76	2.98358	1.35008	-1.33804	0.762116	0.854989	0.924175	-0.330279	0.0456563	-0.357755	0.554613	0.0082852	0	0	0.331485	-0.134873	-0.382587	0.755796	-0.122397	0	0	-0.393366	0.145728	0.388309	-0.680201	-0.365149	-0.115233	1.05335	1.02856	0	0	0.27177	-0.0107196	0.307926	0	1.5708	0	0
0.77	3.04255	1.34598	-1.39973	0.761635	0.864001	0.92495	-0.347012	0.0314911	-0.354726	0.553525	0.00507322	0	0	0.306025	-0.130098	-0.526548	0.596949	-0.0730802	0	0	-0.402264	0.129094	0.383134	-0.667161	-0.367019	-0.105869	1.04256	1.02798	0	0	0.272236	-0.0136694	0.304824	0	1.5708	0	0
0.78	3.03941	1.3473	-1.39785	0.760681	0.873472	0.923554	-0.353651	0.0304388	-0.351107	0.55819	0.00380126	0	0	0.304613	-0.139873	-0.566682	0.607584	-0.0747803	0	0	-0.40054	0.129422	0.38544	-0.670164	-0.368597	-0.105329	1.04405	1.02664	0	0	0.271573	-0.0124666	0.303905	0	1.5708	0	0
0.79	3.03449	1.35087	-1.39541	0.760179	0.882613	0.92226	-0.355619	0.0298034	-0.342532	0.565676	0.00247789	0	0	0.300995	-0.134414	-0.557444	0.601573	-0.0777007	0	0	-0.397895	0.128572	0.388911	-0.671184	-0.369152	-0.105034	1.04455	1.02485	0	0	0.271585	-0.0117831	0.303215	0	1.5708	0	0
0.8	-3.12298	1.37321	-1.50552	0.759542	0.888169	0.923708	-0.331324	0.00353035	-0.345108	0.58825	0.000331913	0	0	0.133246	0.0544497	0.00626499	0.0241449	-0.227023	0	0	-0.384588	0.0913963	0.342835	-0.610476	-0.379033	-0.0518795	0.995586	1.01903	0	0	0.272397	-0.0270665	0.283405	0	1.5708	0	0
0.81	-3.10924	1.37537	-1.52081	0.758677	0.897795	0.92302	-0.33583	-0.000742674	-0.340427	0.594344	-0.00394058	0	0	0.131392	0.0605387	0.0137278	0.0478178	-0.228959	0	0	-0.382879	0.0875677	0.34324	-0.610303	-0.379489	-0.0499711	0.994602	1.01547	0	0	0.270895	-0.0273728	0.283399	0	1.5708	0	0
0.82	-3.09016	1.37921	-1.54008	0.757594	0.907951	0.922279	-0.339031	-0.00584647	-0.33825	0.600876	-0.00989525	0	0	0.133366	0.0690854	0.0227667	0.0780539	-0.219172	0	0	-0.377802	0.0832199	0.341897	-0.610497	-0.378876	-0.047489	0.991943	1.01203	0	0	0.267817	-0.0285651	0.283702	0	1.5708	0	0
0.83	-3.06565	1.38564	-1.56329	0.75629	0.918686	0.921494	-0.34036	-0.0115418	-0.336699	0.606342	-0.0181	0	0	0.139289	0.079119	0.0326276	0.105101	-0.204796	0	0	-0.368016	0.0784665	0.337	-0.60934	-0.379322	-0.0401016	0.986441	1.00752	0	0	0.262228	-0.0312155	0.280698	0	1.5708	0	0
